<?xml version="1.0" encoding="utf-8"?>
<!-- Generator: Adobe Illustrator 28.3.0, SVG Export Plug-In . SVG Version: 6.00 Build 0)  -->
<svg version="1.1" id="Layer_1" xmlns="http://www.w3.org/2000/svg" xmlns:xlink="http://www.w3.org/1999/xlink" x="0px" y="0px"
	 viewBox="0 0 300 300" style="enable-background:new 0 0 300 300;" xml:space="preserve">
<style type="text/css">
	.st0{fill:#FFFFFF;}
	.st1{fill:url(#SVGID_1_);}
	.st2{fill:#FFB703;}
	.st3{fill:#7F4E0D;}
</style>
<path class="st0" d="M150.8,278L23.5,150.8L150.8,23.5L278,150.8L150.8,278z"/>
<linearGradient id="SVGID_1_" gradientUnits="userSpaceOnUse" x1="-598.9825" y1="-278.1339" x2="-594.6391" y2="-278.1339" gradientTransform="matrix(37.8587 37.8587 -38.1413 38.1413 12136.0361 33352.8086)">
	<stop  offset="0" style="stop-color:#2DA9C5"/>
	<stop  offset="1" style="stop-color:#006AC0"/>
</linearGradient>
<path class="st1" d="M176.1,288.3c0,0.4-0.4,0.4-0.9,0.9c-14.2,14.3-37.3,14.3-51.5,0.1c-0.1,0-0.1-0.1-0.2-0.1
	c-0.4-0.4-0.4-0.4-0.4-0.9L11.5,176.6c-0.4,0-0.4-0.4-0.9-0.4c-14.3-14.3-13.9-37.4,0-51.7L124.8,10.7c14.3-14.3,37.4-14.3,51.7,0
	l112.9,113c14.3,14.3,13.9,37.4,0,51.7l-0.9,0.9L176.1,288.3z M149.6,254.8l105.5-105.6L150.4,44.5L44.9,150.1L149.6,254.8z"/>
<path class="st2" d="M194.3,162.6c-6.3,0-11.7-3.5-14.5-8.6c-3,1.5-6.4,2.4-10,2.4c-12.3,0-22.3-10-22.3-22.3
	c-10,0-18.5-6.6-21.3-15.7c-4.4,2.4-8.5,5.5-12.1,9c-9.7,9.7-15.6,23-15.6,37.8c0,29.5,23.9,53.4,53.4,53.4c14.8,0,28.1-6,37.8-15.6
	c9.7-9.7,15.6-23,15.6-37.8c0-2.3-0.2-4.5-0.4-6.6C202.1,161.1,198.4,162.6,194.3,162.6z M191.7,129.9c0.1,0,0.2,0,0.3,0
	c-0.1-0.2-0.3-0.3-0.4-0.5C191.6,129.5,191.6,129.7,191.7,129.9z M155.4,113.8L155.4,113.8c-7.3,0-13.2-5.9-13.2-13.2l0,0
	c0-7.3,5.9-13.2,13.2-13.2l0,0c7.3,0,13.2,5.9,13.2,13.2l0,0C168.6,107.9,162.7,113.8,155.4,113.8z M182,140.4L182,140.4
	c-4.1,0-7.5-3.4-7.5-7.5l0,0c0-4.1,3.4-7.5,7.5-7.5l0,0c4.1,0,7.5,3.4,7.5,7.5l0,0C189.5,137,186.1,140.4,182,140.4z M188.1,104.6
	L188.1,104.6c-2.2,0-4-1.8-4-4l0,0c0-2.2,1.8-4,4-4l0,0c2.2,0,4,1.8,4,4l0,0C192.1,102.8,190.3,104.6,188.1,104.6z"/>
<path class="st3" d="M119.8,155.6L119.8,155.6c-3.1,0-5.6-2.5-5.6-5.6l0,0c0-3.1,2.5-5.6,5.6-5.6l0,0c3.1,0,5.6,2.5,5.6,5.6l0,0
	C125.4,153,122.9,155.6,119.8,155.6z M153.3,172.2L153.3,172.2c-2.8,0-5-2.2-5-5l0,0c0-2.8,2.2-5,5-5l0,0c2.8,0,5,2.2,5,5l0,0
	C158.2,170,156,172.2,153.3,172.2z M122.6,186.2L122.6,186.2c-2.8,0-5-2.2-5-5l0,0c0-2.8,2.2-5,5-5l0,0c2.8,0,5,2.2,5,5l0,0
	C127.6,183.9,125.4,186.2,122.6,186.2z M153.3,207.1L153.3,207.1c-2.8,0-5-2.2-5-5l0,0c0-2.8,2.2-5,5-5l0,0c2.8,0,5,2.2,5,5l0,0
	C158.2,204.9,156,207.1,153.3,207.1z M183.5,184.4L183.5,184.4c-2.5,0-4.5-2-4.5-4.5l0,0c0-2.5,2-4.5,4.5-4.5l0,0
	c2.5,0,4.5,2,4.5,4.5l0,0C188.1,182.3,186,184.4,183.5,184.4z"/>
</svg>
